<svg xmlns="http://www.w3.org/2000/svg" width="131.554" height="157.706" viewBox="0 0 131.554 157.706"><g id="&#x30B0;&#x30EB;&#x30FC;&#x30D7;_55" data-name="&#x30B0;&#x30EB;&#x30FC;&#x30D7; 55" transform="translate(-2058 -8888)"><rect id="&#x9577;&#x65B9;&#x5F62;_131" data-name="&#x9577;&#x65B9;&#x5F62; 131" width="131.554" height="157.706" transform="translate(2058 8888)" fill="#fff" opacity="0"></rect><g id="&#x30B0;&#x30EB;&#x30FC;&#x30D7;_20" data-name="&#x30B0;&#x30EB;&#x30FC;&#x30D7; 20" transform="translate(2090.51 8929.624)"><path id="&#x30D1;&#x30B9;_1" data-name="&#x30D1;&#x30B9; 1" d="M426.071,1598.365a29.237,29.237,0,0,1-5.051,10.733,23.462,23.462,0,0,1-8.775,6.989,33.868,33.868,0,0,1-25.524,0,22.709,22.709,0,0,1-8.686-6.989,30.123,30.123,0,0,1-4.964-10.649,59.168,59.168,0,0,1,0-27.29,28.524,28.524,0,0,1,5.052-10.566,24.019,24.019,0,0,1,8.686-6.905,29.235,29.235,0,0,1,12.674-2.5,29.834,29.834,0,0,1,12.763,2.5,23.839,23.839,0,0,1,8.775,6.905,28.492,28.492,0,0,1,5.051,10.566,53.669,53.669,0,0,1,1.6,13.478,55.38,55.38,0,0,1-1.6,13.728m4.559-29.41a34.052,34.052,0,0,0-6.614-11.945,28.4,28.4,0,0,0-10.367-7.434,35.922,35.922,0,0,0-13.485-2.674,34.99,34.99,0,0,0-13.454,2.339,29.069,29.069,0,0,0-10.629,7.236,34.677,34.677,0,0,0-7.056,11.851,49.172,49.172,0,0,0-2.715,16.183,50.149,50.149,0,0,0,2.2,16.254,33.516,33.516,0,0,0,6.664,11.994,28.788,28.788,0,0,0,10.419,7.437,38,38,0,0,0,27.141.337,28.581,28.581,0,0,0,10.578-7.238,33.834,33.834,0,0,0,6.9-11.9,51.617,51.617,0,0,0,2.614-16.237,49.661,49.661,0,0,0-2.2-16.2" transform="translate(-366.304 -1546.898)" fill="#fff"></path><path id="&#x30D1;&#x30B9;_2" data-name="&#x30D1;&#x30B9; 2" d="M419,1573.667a14.64,14.64,0,0,0-5.044-2.729,21.87,21.87,0,0,0-6.717-.956h-1.043a21.873,21.873,0,0,0-6.717.956,14.635,14.635,0,0,0-5.044,2.729,11.6,11.6,0,0,0-3.168,4.339,14.584,14.584,0,0,0-1.078,5.712,14.861,14.861,0,0,0,.82,5.129,10.747,10.747,0,0,0,5.811,6.287,14.045,14.045,0,0,0,3.376,1.017l.806-4.965a12.371,12.371,0,0,1-2.473-.7,6.387,6.387,0,0,1-2.084-1.343,5.618,5.618,0,0,1-1.327-2.138,9.633,9.633,0,0,1-.481-3.251,8.082,8.082,0,0,1,.8-3.682,7.521,7.521,0,0,1,2.3-2.685,11.25,11.25,0,0,1,3.672-1.7,18.235,18.235,0,0,1,4.821-.6c.146,0,.433.007.435.007h.091s.289-.007.435-.007a18.246,18.246,0,0,1,4.821.6,11.247,11.247,0,0,1,3.672,1.7,7.519,7.519,0,0,1,2.3,2.685,8.082,8.082,0,0,1,.8,3.682,9.632,9.632,0,0,1-.482,3.251,5.628,5.628,0,0,1-1.327,2.138,6.4,6.4,0,0,1-2.084,1.344,12.435,12.435,0,0,1-2.478.7l.806,4.965a14.067,14.067,0,0,0,3.382-1.019,10.752,10.752,0,0,0,5.811-6.287,14.845,14.845,0,0,0,.82-5.128,14.58,14.58,0,0,0-1.077-5.712,11.585,11.585,0,0,0-3.167-4.339" transform="translate(-373.444 -1553.798)" fill="#fff"></path><path id="&#x30D1;&#x30B9;_3" data-name="&#x30D1;&#x30B9; 3" d="M409.378,1613.849V1600.27h-4.572v13.579h-13.36v4.6h31.292v-4.6Z" transform="translate(-373.82 -1562.852)" fill="#fff"></path></g></g></svg>